<svg width="32" height="32" viewBox="0 0 32 32" fill="none" xmlns="http://www.w3.org/2000/svg">
<path d="M32 16C32 7.16344 24.8366 0 16 0C7.16344 0 0 7.16344 0 16C0 24.8366 7.16344 32 16 32C24.8366 32 32 24.8366 32 16Z" fill="white"/>
<path d="M23.1251 12.0068H8.35609C8.00518 12.0068 7.7207 12.2913 7.7207 12.6422V23.3649C7.7207 23.7159 8.00518 24.0003 8.35609 24.0003H23.1251C23.476 24.0003 23.7605 23.7159 23.7605 23.3649V12.6422C23.7605 12.2913 23.476 12.0068 23.1251 12.0068Z" fill="#4989F5"/>
<path d="M22.9405 11.916H8.52453C8.07797 11.916 7.73047 15.3721 7.73047 15.8186L15.6251 23.9996H22.9405C23.3885 23.9984 23.7513 23.6356 23.7525 23.1876V12.7278C23.7512 12.28 23.3884 11.9172 22.9405 11.916Z" fill="url(#paint0_linear_372_1418)"/>
<path d="M11.3828 14.0148H15.9656V8H12.069L11.3828 14.0148Z" fill="#3C4BA6"/>
<path d="M20.5476 14.0148H15.9648V8H19.8614L20.5476 14.0148ZM23.7594 9.14019L23.7651 9.16069C23.7637 9.15345 23.7609 9.14673 23.7594 9.14019Z" fill="#7BABF7"/>
<path d="M23.7669 9.16069L23.7612 9.14019C23.616 8.47487 23.0271 8.00043 22.3461 8H19.8633L20.549 14.015H25.1318L23.7669 9.16069Z" fill="#3F51B5"/>
<path d="M8.1717 9.14062L8.16602 9.16113C8.16739 9.15389 8.17015 9.14717 8.1717 9.14062Z" fill="#7BABF7"/>
<path d="M8.16649 9.16069L8.17218 9.14019C8.31746 8.47487 8.90634 8.00043 9.58733 8H12.0703L11.3836 14.015H6.80078L8.16649 9.16069Z" fill="#7BABF7"/>
<path fill-rule="evenodd" clip-rule="evenodd" d="M11.3836 14.0127C11.3836 15.2762 10.3577 16.3004 9.09218 16.3004C7.82668 16.3004 6.80078 15.2762 6.80078 14.0127H11.3836Z" fill="#709BE0"/>
<path fill-rule="evenodd" clip-rule="evenodd" d="M15.9656 14.0127C15.9656 15.2762 14.9397 16.3004 13.6742 16.3004C12.4087 16.3004 11.3828 15.2762 11.3828 14.0127H15.9656Z" fill="#3C4BA6"/>
<path fill-rule="evenodd" clip-rule="evenodd" d="M20.5476 14.0127C20.5476 15.2762 19.5217 16.3004 18.2562 16.3004C16.9907 16.3004 15.9648 15.2762 15.9648 14.0127H20.5476Z" fill="#709BE0"/>
<path fill-rule="evenodd" clip-rule="evenodd" d="M25.1316 14.0127C25.1316 15.2762 24.1057 16.3004 22.8402 16.3004C21.5747 16.3004 20.5488 15.2762 20.5488 14.0127H25.1316Z" fill="#3C4BA6"/>
<path d="M22.8399 20.2178C22.8318 20.1087 22.8184 20.0092 22.7992 19.882H20.3011C20.3011 20.2314 20.3011 20.6127 20.2997 20.9622H21.7469C21.7162 21.1251 21.6535 21.2804 21.5626 21.419C21.4717 21.5577 21.3543 21.677 21.2171 21.7701C21.2171 21.7701 21.2171 21.7641 21.2161 21.7639C21.039 21.8802 20.8394 21.9581 20.6303 21.9925C20.4207 22.0309 20.2058 22.0299 19.9965 21.9897C19.784 21.9458 19.5828 21.8586 19.4054 21.7336C19.1435 21.5479 18.9416 21.2898 18.8243 20.991C18.8153 20.9677 18.807 20.9443 18.7986 20.9205V20.918L18.8008 20.9162C18.687 20.5821 18.6867 20.2196 18.8 19.8853C18.8798 19.6507 19.0111 19.437 19.1843 19.2599C19.5907 18.8395 20.1979 18.6814 20.7577 18.8502C20.9723 18.916 21.1684 19.0315 21.3302 19.1872L21.8184 18.6989C21.9046 18.6119 21.994 18.5277 22.0768 18.4377C21.8293 18.2068 21.5387 18.0269 21.2216 17.9081C20.6446 17.6989 20.0134 17.6934 19.4328 17.8925C19.4126 17.8993 19.3925 17.9065 19.3725 17.914C18.7461 18.1495 18.2308 18.6113 17.9284 19.2082C17.8216 19.4195 17.7438 19.6442 17.6972 19.8763C17.4206 21.2507 18.2592 22.6035 19.6132 22.9671C20.0558 23.0857 20.5263 23.0827 20.9723 22.9814C21.3776 22.8899 21.7523 22.6952 22.0601 22.4162C22.3813 22.1207 22.6115 21.727 22.7321 21.3089C22.8329 20.9545 22.8694 20.585 22.8399 20.2178Z" fill="white"/>
<defs>
<linearGradient id="paint0_linear_372_1418" x1="7.73047" y1="17.9577" x2="23.7524" y2="17.9577" gradientUnits="userSpaceOnUse">
<stop offset="0.03" stop-color="#4079D8"/>
<stop offset="1" stop-color="#4989F5"/>
</linearGradient>
</defs>
</svg>
