<svg width="29" height="29" viewBox="0 0 29 29" fill="none" xmlns="http://www.w3.org/2000/svg">
<circle cx="14.5366" cy="14.4624" r="13.6421" fill="#9B59B6"/>
<path d="M9.16071 14.6482C8.73641 14.8708 8.75401 15.1969 9.19885 15.3729L10.5168 15.8944C10.9621 16.0711 11.6357 15.9747 12.0131 15.6802L17.7365 11.1666C18.1128 10.8706 18.1531 10.9143 17.8264 11.2641L13.3017 16.1071C12.9739 16.4558 13.0707 16.8842 13.5174 17.0569L13.6718 17.117C14.1184 17.2898 14.8464 17.5798 15.2901 17.7603L16.7519 18.3554C17.196 18.5359 17.6705 18.3232 17.7967 17.8611L20.0245 9.67218C20.1503 9.2101 19.9061 9.01391 19.4818 9.23614L9.16071 14.6482Z" fill="white"/>
<path d="M12.7764 20.01C12.7504 20.0881 13.6779 18.667 13.6779 18.667C13.9401 18.2666 13.7912 17.7887 13.3482 17.6076L12.3367 17.1936C11.8937 17.0124 11.6814 17.2251 11.8648 17.6677C11.8648 17.6677 12.8032 19.9297 12.7764 20.01Z" fill="white"/>
</svg>
