<svg width="32" height="32" viewBox="0 0 32 32" fill="none" xmlns="http://www.w3.org/2000/svg">
<path d="M32 16C32 7.16344 24.8366 0 16 0C7.16344 0 0 7.16344 0 16C0 24.8366 7.16344 32 16 32C24.8366 32 32 24.8366 32 16Z" fill="white"/>
<path d="M8 15.68C8 12.0587 8 10.2507 9.12 9.12C10.256 8 12.064 8 15.68 8H16.32C19.9413 8 21.7493 8 22.88 9.12C24 10.256 24 12.064 24 15.68V16.32C24 19.9413 24 21.7493 22.88 22.88C21.744 24 19.936 24 16.32 24H15.68C12.0587 24 10.2507 24 9.12 22.88C8 21.744 8 19.936 8 16.32V15.68Z" fill="#0077FF"/>
<path d="M16.5126 19.5246C12.8646 19.5246 10.7846 17.0286 10.6992 12.8686H12.5339C12.5926 15.9193 13.9366 17.2099 15.0032 17.4766V12.8686H16.7259V15.4979C17.7766 15.3859 18.8859 14.1859 19.2592 12.8633H20.9766C20.8365 13.548 20.5568 14.1964 20.1549 14.7681C19.7529 15.3398 19.2374 15.8225 18.6406 16.1859C19.3067 16.5175 19.8949 16.9865 20.3665 17.5619C20.8381 18.1374 21.1824 18.8064 21.3766 19.5246H19.4832C19.0779 18.2606 18.0646 17.2793 16.7259 17.1459V19.5246H16.5179H16.5126Z" fill="white"/>
</svg>
